<svg xmlns="http://www.w3.org/2000/svg" width="20" height="20" viewBox="0 0 20 20" fill="none">
  <path d="M18.0547 8.63955C18.0827 8.59033 18.1024 8.53683 18.113 8.48122L18.738 5.14788C18.7778 4.92687 18.7282 4.6991 18.6 4.51469C18.4719 4.33028 18.2757 4.20433 18.0547 4.16455C17.8337 4.12477 17.6059 4.17441 17.4215 4.30256C17.2371 4.43071 17.1111 4.62687 17.0714 4.84788L16.763 6.51455C16.0694 5.24781 15.0327 4.20223 13.772 3.4977C12.5113 2.79318 11.0775 2.45825 9.63516 2.53133C8.19279 2.6044 6.80022 3.08253 5.61715 3.91086C4.43409 4.73919 3.50844 5.88419 2.94637 7.21455C2.86392 7.41902 2.86586 7.64784 2.95176 7.85089C3.03767 8.05394 3.20053 8.21467 3.4047 8.29788C3.50641 8.34 3.61546 8.36154 3.72555 8.36127C3.83563 8.36099 3.94458 8.33891 4.04608 8.2963C4.14758 8.25368 4.23964 8.19137 4.31693 8.11298C4.39421 8.03458 4.4552 7.94165 4.49636 7.83955C4.94514 6.73689 5.717 5.79578 6.71051 5.13988C7.70403 4.48398 8.87272 4.14398 10.063 4.16455C11.1158 4.15964 12.1511 4.43296 13.0643 4.95685C13.9774 5.48074 14.7359 6.23659 15.263 7.14788L13.888 6.92288C13.7786 6.90537 13.6668 6.90959 13.559 6.93529C13.4512 6.96099 13.3495 7.00768 13.2597 7.07268C13.17 7.13768 13.0939 7.21973 13.0358 7.31413C12.9778 7.40853 12.9389 7.51345 12.9214 7.62288C12.9039 7.73232 12.9081 7.84413 12.9338 7.95194C12.9595 8.05974 13.0062 8.16143 13.0712 8.25119C13.1362 8.34095 13.2182 8.41704 13.3126 8.47509C13.407 8.53315 13.5119 8.57204 13.6214 8.58955L17.163 9.18122H17.2964C17.3931 9.18238 17.4892 9.16542 17.5797 9.13122C17.6102 9.11963 17.6384 9.1027 17.663 9.08122C17.7228 9.059 17.7789 9.02811 17.8297 8.98955L17.8964 8.90622C17.9396 8.86576 17.9787 8.82109 18.013 8.77288C18.0333 8.73069 18.0473 8.68578 18.0547 8.63955Z" fill="#878787"/>
  <path d="M16.5714 11.7229C16.4691 11.681 16.3596 11.6599 16.2491 11.6607C16.1387 11.6615 16.0294 11.6843 15.9279 11.7277C15.8263 11.7712 15.7343 11.8344 15.6574 11.9136C15.5805 11.9929 15.5201 12.0867 15.4797 12.1895C15.0278 13.2806 14.2588 14.211 13.2723 14.8602C12.2858 15.5095 11.1272 15.8477 9.94637 15.8312C8.89362 15.8361 7.85827 15.5628 6.94513 15.0389C6.03198 14.515 5.27346 13.7592 4.74637 12.8479L6.12137 13.0729H6.2547C6.47571 13.0906 6.6947 13.0197 6.86348 12.8759C7.03226 12.7322 7.13702 12.5272 7.1547 12.3062C7.17238 12.0852 7.10154 11.8662 6.95776 11.6974C6.81398 11.5287 6.60905 11.4239 6.38803 11.4062L2.84637 10.8312C2.75546 10.8145 2.66227 10.8145 2.57137 10.8312H2.5047C2.41039 10.8563 2.32046 10.8956 2.23803 10.9479C2.18185 10.9913 2.13144 11.0417 2.08803 11.0979L2.01303 11.1812C1.98727 11.2314 1.96769 11.2846 1.9547 11.3395C1.9255 11.3821 1.90562 11.4304 1.89637 11.4812L1.27137 14.8145C1.2446 14.9253 1.24083 15.0404 1.26029 15.1526C1.27975 15.2649 1.32203 15.372 1.38451 15.4673C1.44699 15.5626 1.52835 15.644 1.62355 15.7066C1.71876 15.7692 1.82579 15.8116 1.93803 15.8312H2.08803C2.28536 15.8344 2.47742 15.7675 2.63002 15.6424C2.78263 15.5172 2.88587 15.342 2.92137 15.1479L3.2297 13.4812C3.92263 14.7483 4.95862 15.7944 6.21887 16.4996C7.47912 17.2048 8.91261 17.5405 10.3549 17.4683C11.7973 17.3961 13.1901 16.9189 14.3736 16.0913C15.5571 15.2638 16.4834 14.1195 17.0464 12.7895C17.1227 12.585 17.1157 12.3586 17.0269 12.1591C16.9381 11.9596 16.7745 11.803 16.5714 11.7229Z" fill="#878787"/>
</svg>