<svg className="fill-black" xmlns="http://www.w3.org/2000/svg" width="20" height="20" viewBox="0 0 20 20" fill="none">
    <path d="M7.5 2.5H4.16667C3.72464 2.5 3.30072 2.67559 2.98816 2.98816C2.67559 3.30072 2.5 3.72464 2.5 4.16667V8.33333C2.5 8.77536 2.67559 9.19928 2.98816 9.51184C3.30072 9.8244 3.72464 10 4.16667 10H7.5C7.94203 10 8.36595 9.8244 8.67851 9.51184C8.99107 9.19928 9.16667 8.77536 9.16667 8.33333V4.16667C9.16667 3.72464 8.99107 3.30072 8.67851 2.98816C8.36595 2.67559 7.94203 2.5 7.5 2.5ZM4.16667 8.33333V4.16667H7.5V8.33333H4.16667Z" />
    <path d="M15.8333 2.5H12.5C12.058 2.5 11.634 2.67559 11.3215 2.98816C11.0089 3.30072 10.8333 3.72464 10.8333 4.16667V6.66667C10.8333 7.10869 11.0089 7.53262 11.3215 7.84518C11.634 8.15774 12.058 8.33333 12.5 8.33333H15.8333C16.2754 8.33333 16.6993 8.15774 17.0118 7.84518C17.3244 7.53262 17.5 7.10869 17.5 6.66667V4.16667C17.5 3.72464 17.3244 3.30072 17.0118 2.98816C16.6993 2.67559 16.2754 2.5 15.8333 2.5ZM12.5 6.66667V4.16667H15.8333V6.66667H12.5Z" />
    <path d="M7.5 11.6667H4.16667C3.72464 11.6667 3.30072 11.8423 2.98816 12.1548C2.67559 12.4674 2.5 12.8913 2.5 13.3333V15.8333C2.5 16.2754 2.67559 16.6993 2.98816 17.0118C3.30072 17.3244 3.72464 17.5 4.16667 17.5H7.5C7.94203 17.5 8.36595 17.3244 8.67851 17.0118C8.99107 16.6993 9.16667 16.2754 9.16667 15.8333V13.3333C9.16667 12.8913 8.99107 12.4674 8.67851 12.1548C8.36595 11.8423 7.94203 11.6667 7.5 11.6667ZM4.16667 15.8333V13.3333H7.5V15.8333H4.16667Z" />
    <path d="M15.8333 10H12.5C12.058 10 11.634 10.1756 11.3215 10.4882C11.0089 10.8007 10.8333 11.2246 10.8333 11.6667V15.8333C10.8333 16.2754 11.0089 16.6993 11.3215 17.0118C11.634 17.3244 12.058 17.5 12.5 17.5H15.8333C16.2754 17.5 16.6993 17.3244 17.0118 17.0118C17.3244 16.6993 17.5 16.2754 17.5 15.8333V11.6667C17.5 11.2246 17.3244 10.8007 17.0118 10.4882C16.6993 10.1756 16.2754 10 15.8333 10ZM12.5 15.8333V11.6667H15.8333V15.8333H12.5Z" />
</svg>